#!OML:ASF X:\für Bonn\!DataBase\2005_08_11_Bastian_Final\c3d\Bastian.ASF
:FULLY-SPECIFIED
:DEGREES
95
root -2.44017 16.3457 6.36803 135.192 -26.412 -167.695
lowerback 54.1007 -7.75106 1.03708
upperback 14.5004 -17.3783 4.32507
thorax -2.79462 -12.4715 11.0086
lowerneck -13.2224 -5.92496 -3.95334
upperneck -8.43445 -5.94226 12.7818
head 0.188412 -2.25725 4.26407
rclavicle 2.18663e-014 5.76476e-015
rhumerus -29.4311 37.8231 -88.7083
rradius 49.9343
rwrist -18.7883
rhand -30.8366 11.3063
rfingers 7.12502
rthumb -4.12534 -18.6335
lclavicle 2.18663e-014 5.76476e-015
lhumerus 53.3649 -23.5288 77.3888
lradius 115.653
lwrist -27.9278
lhand -60.0253 -16.6111
lfingers 7.12502
lthumb -32.1759 10.5594
rfemur -98.9572 -3.68861 40.0125
rtibia 134.311
rfoot 3.78804 -13.161
rtoes -1.45324
lfemur 22.8973 -4.29305 -14.7487
ltibia 41.5917
lfoot -14.9275 -13.8446
ltoes 7.7105
96
root -2.44144 16.347 6.37613 135.22 -26.4205 -167.708
lowerback 54.1153 -7.73867 0.939366
upperback 14.5128 -17.4321 4.33038
thorax -2.75837 -12.5116 11.0705
lowerneck -13.1537 -5.82789 -3.73825
upperneck -8.47633 -5.83011 12.7595
head 0.148213 -2.20941 4.22988
rclavicle 1.32192e-013 -9.64106e-014
rhumerus -29.3734 37.8257 -88.7393
rradius 49.9756
rwrist -18.5753
rhand -30.9389 11.1508
rfingers 7.12502
rthumb -4.22411 -18.7871
lclavicle 1.32192e-013 -9.64106e-014
lhumerus 53.4067 -23.4771 77.2394
lradius 115.774
lwrist -28.0806
lhand -59.9627 -16.9473
lfingers 7.12502
lthumb -32.1164 10.2352
rfemur -99.0137 -3.76516 39.9378
rtibia 134.444
rfoot 3.76017 -12.9044
rtoes -1.21589
lfemur 22.8449 -4.20875 -14.7121
ltibia 41.587
lfoot -14.8708 -13.9295
ltoes 7.75942
97
root -2.44206 16.3493 6.38428 135.204 -26.3837 -167.681
lowerback 54.1611 -7.72936 0.885467
upperback 14.5253 -17.4727 4.33377
thorax -2.73257 -12.5458 11.1101
lowerneck -13.0502 -5.74716 -3.54925
upperneck -8.55515 -5.73009 12.7736
head 0.0955311 -2.16786 4.21133
rclavicle 2.20651e-014 1.98785e-015
rhumerus -29.3446 37.8592 -88.8167
rradius 49.9607
rwrist -18.4805
rhand -31.0331 11.1022
rfingers 7.12502
rthumb -4.31514 -18.8339
lclavicle 2.20651e-014 1.98785e-015
lhumerus 53.4554 -23.426 77.0787
lradius 115.868
lwrist -28.1913
lhand -59.8766 -17.3249
lfingers 7.12502
lthumb -32.0343 9.87418
rfemur -99.0086 -3.84867 39.9047
rtibia 134.561
rfoot 3.73466 -12.5884
rtoes -1.5744
lfemur 22.8413 -4.133 -14.6251
ltibia 41.5464
lfoot -14.8496 -13.9615
ltoes 7.4767
98
root -2.44277 16.3531 6.39243 135.209 -26.3529 -167.644
lowerback 54.1812 -7.72663 0.814619
upperback 14.5357 -17.528 4.3485
thorax -2.6991 -12.5883 11.1717
lowerneck -12.9889 -5.67741 -3.50945
upperneck -8.58671 -5.62999 12.8783
head 0.0725181 -2.11938 4.24333
rclavicle -4.36332e-014 -3.10104e-014
rhumerus -29.3381 37.9397 -88.883
rradius 49.9128
rwrist -18.3379
rhand -31.1424 11.0758
rfingers 7.12502
rthumb -4.42064 -18.8581
lclavicle -4.36332e-014 -3.10104e-014
lhumerus 53.4942 -23.3671 76.9235
lradius 115.925
lwrist -28.3463
lhand -59.7996 -17.6041
lfingers 7.12502
lthumb -31.9611 9.60968
rfemur -99.0219 -3.95877 39.8692
rtibia 134.669
rfoot 3.75739 -12.2119
rtoes -2.57969
lfemur 22.821 -4.06876 -14.5313
ltibia 41.477
lfoot -14.7737 -14.021
ltoes 7.28105
99
root -2.44304 16.3605 6.40128 135.218 -26.306 -167.601
lowerback 54.1681 -7.73296 0.786987
upperback 14.5564 -17.5669 4.34255
thorax -2.66583 -12.6162 11.184
lowerneck -12.9364 -5.64573 -3.51889
upperneck -8.61371 -5.5733 13.0373
head 0.0597342 -2.0896 4.29748
rclavicle 3.30976e-014 -4.6118e-014
rhumerus -29.3829 38.0072 -88.9993
rradius 49.854
rwrist -18.289
rhand -31.2486 11.1428
rfingers 7.12502
rthumb -4.52319 -18.7889
lclavicle 3.30976e-014 -4.6118e-014
lhumerus 53.5416 -23.3402 76.7466
lradius 115.961
lwrist -28.4749
lhand -59.7123 -17.8757
lfingers 7.12502
lthumb -31.8779 9.35465
rfemur -99.0085 -4.10022 39.8325
rtibia 134.747
rfoot 3.76071 -11.8294
rtoes -3.33425
lfemur 22.8081 -3.9678 -14.3902
ltibia 41.3806
lfoot -14.696 -14.096
ltoes 7.19977
100
root -2.44252 16.3687 6.4092 135.245 -26.2565 -167.563
lowerback 54.1269 -7.74816 0.795957
upperback 14.5632 -17.5753 4.31447
thorax -2.66295 -12.6138 11.1497
lowerneck -12.8683 -5.64483 -3.5522
upperneck -8.61216 -5.56133 13.2183
head 0.0583263 -2.0823 4.35972
rclavicle 2.18663e-014 2.66371e-014
rhumerus -29.5103 37.9618 -89.1558
rradius 49.7578
rwrist -18.2147
rhand -31.3812 11.2641
rfingers 7.12502
rthumb -4.65121 -18.6649
lclavicle 2.18663e-014 2.66371e-014
lhumerus 53.5753 -23.413 76.5779
lradius 115.977
lwrist -28.5805
lhand -59.675 -17.9473
lfingers 7.12502
lthumb -31.8424 9.29012
rfemur -98.9702 -4.25374 39.7817
rtibia 134.801
rfoot 3.77054 -11.4193
rtoes -4.24037
lfemur 22.7871 -3.84702 -14.235
ltibia 41.2573
lfoot -14.6243 -14.2006
ltoes 6.87525
101
root -2.44222 16.3777 6.41689 135.267 -26.2035 -167.51
lowerback 54.0507 -7.76731 0.827772
upperback 14.5957 -17.5855 4.28254
thorax -2.63181 -12.6159 11.0941
lowerneck -12.8064 -5.65509 -3.58524
upperneck -8.64648 -5.55621 13.4062
head 0.0481516 -2.07735 4.42416
rclavicle -4.04527e-014 -1.31198e-014
rhumerus -29.5905 37.8934 -89.3069
rradius 49.6082
rwrist -18.1449
rhand -31.4805 11.435
rfingers 7.12502
rthumb -4.74716 -18.4918
lclavicle -4.04527e-014 -1.31198e-014
lhumerus 53.6189 -23.504 76.4301
lradius 115.959
lwrist -28.697
lhand -59.632 -17.9292
lfingers 7.12502
lthumb -31.8014 9.31639
rfemur -98.9259 -4.44714 39.7495
rtibia 134.864
rfoot 3.78841 -11.0442
rtoes -5.19886
lfemur 22.7789 -3.72439 -14.0558
ltibia 41.1081
lfoot -14.5019 -14.3231
ltoes 6.76001
102
root -2.44121 16.3885 6.42442 135.286 -26.1544 -167.446
lowerback 53.9735 -7.78525 0.84325
upperback 14.6153 -17.5985 4.2706
thorax -2.60675 -12.6203 11.0696
lowerneck -12.7336 -5.66702 -3.68524
upperneck -8.68395 -5.54646 13.6072
head 0.0378545 -2.06955 4.50413
rclavicle -1.58829e-013 2.02363e-013
rhumerus -29.6978 37.8924 -89.449
rradius 49.4495
rwrist -18.0928
rhand -31.5808 11.5685
rfingers 7.12502
rthumb -4.84392 -18.3562
lclavicle -1.58829e-013 2.02363e-013
lhumerus 53.6206 -23.5521 76.3504
lradius 115.893
lwrist -28.8682
lhand -59.6302 -17.6106
lfingers 7.12502
lthumb -31.7997 9.63529
rfemur -98.8642 -4.6836 39.7415
rtibia 134.941
rfoot 3.74045 -10.7034
rtoes -6.53962
lfemur 22.7782 -3.60597 -13.8613
ltibia 40.9373
lfoot -14.3944 -14.4405
ltoes 6.43897
103
root -2.44015 16.4 6.43143 135.325 -26.1013 -167.392
lowerback 53.8566 -7.80823 0.879959
upperback 14.6462 -17.5975 4.22198
thorax -2.58163 -12.6083 10.9885
lowerneck -12.6539 -5.68684 -3.73249
upperneck -8.69541 -5.55671 13.8199
head 0.034668 -2.07266 4.57771
rclavicle 4.86029e-014 -1.31993e-013
rhumerus -29.8218 37.8028 -89.6436
rradius 49.2497
rwrist -17.9796
rhand -31.674 11.6751
rfingers 7.12502
rthumb -4.93395 -18.2475
lclavicle 4.86029e-014 -1.31993e-013
lhumerus 53.6028 -23.6597 76.2391
lradius 115.804
lwrist -28.9881
lhand -59.6227 -17.1088
lfingers 7.12502
lthumb -31.7926 10.1385
rfemur -98.7703 -4.92937 39.7213
rtibia 135.008
rfoot 3.67757 -10.3892
rtoes -7.9693
lfemur 22.7724 -3.49299 -13.6862
ltibia 40.752
lfoot -14.2555 -14.5516
ltoes 6.40686
104
root -2.43897 16.4118 6.43767 135.392 -26.0588 -167.357
lowerback 53.7238 -7.81506 0.873161
upperback 14.6715 -17.5974 4.19484
thorax -2.54942 -12.6003 10.9478
lowerneck -12.6193 -5.6973 -3.78247
upperneck -8.70262 -5.55571 13.9743
head 0.0361121 -2.06898 4.63388
rclavicle -6.08281e-014 1.44914e-013
rhumerus -29.9177 37.7458 -89.7948
rradius 49.0382
rwrist -17.9206
rhand -31.7531 11.7998
rfingers 7.12502
rthumb -5.01029 -18.121
lclavicle -6.08281e-014 1.44914e-013
lhumerus 53.5508 -23.72 76.2144
lradius 115.686
lwrist -29.0691
lhand -59.6059 -16.5747
lfingers 7.12502
lthumb -31.7766 10.6758
rfemur -98.6654 -5.19473 39.6772
rtibia 135.081
rfoot 3.72146 -10.056
rtoes -8.62075
lfemur 22.7577 -3.36964 -13.525
ltibia 40.5465
lfoot -14.1167 -14.6552
ltoes 6.32047
105
root -2.4368 16.4248 6.4437 135.452 -26.0038 -167.286
lowerback 53.5861 -7.85317 0.910622
upperback 14.6801 -17.5987 4.15299
thorax -2.54569 -12.582 10.8778
lowerneck -12.5575 -5.70066 -3.81598
upperneck -8.71466 -5.54716 14.1243
head 0.0305252 -2.06347 4.68686
rclavicle -1.70955e-014 -7.35503e-015
rhumerus -30.027 37.6066 -89.9726
rradius 48.7711
rwrist -17.8061
rhand -31.7698 11.9218
rfingers 7.12502
rthumb -5.02645 -17.9986
lclavicle -1.70955e-014 -7.35503e-015
lhumerus 53.4201 -23.8118 76.245
lradius 115.528
lwrist -29.1292
lhand -59.5827 -15.974
lfingers 7.12502
lthumb -31.7545 11.2808
rfemur -98.5087 -5.50439 39.6412
rtibia 135.155
rfoot 3.75284 -9.74827
rtoes -8.27623
lfemur 22.7336 -3.26766 -13.3332
ltibia 40.3421
lfoot -14.0115 -14.7515
ltoes 5.9704
106
root -2.43464 16.4397 6.44831 135.553 -25.9487 -167.242
lowerback 53.3781 -7.86023 0.920671
upperback 14.7144 -17.579 4.11878
thorax -2.50428 -12.5576 10.8087
lowerneck -12.525 -5.71286 -3.84368
upperneck -8.73004 -5.54905 14.2627
head 0.0286753 -2.06153 4.73446
rclavicle 8.64713e-015 -3.29983e-014
rhumerus -30.1293 37.439 -90.0967
rradius 48.5247
rwrist -17.6815
rhand -31.7298 12.0116
rfingers 7.12502
rthumb -4.98788 -17.9097
lclavicle 8.64713e-015 -3.29983e-014
lhumerus 53.2759 -23.9182 76.2949
lradius 115.362
lwrist -29.1687
lhand -59.5563 -15.276
lfingers 7.12502
lthumb -31.7294 11.9839
rfemur -98.3152 -5.86297 39.5227
rtibia 135.255
rfoot 3.66612 -9.3968
rtoes -7.24941
lfemur 22.6806 -3.16161 -13.1662
ltibia 40.1525
lfoot -13.8844 -14.8441
ltoes 5.8966
107
root -2.43267 16.4518 6.45177 135.661 -25.8994 -167.2
lowerback 53.1679 -7.87323 0.92596
upperback 14.7443 -17.565 4.07737
thorax -2.46772 -12.5334 10.7368
lowerneck -12.5222 -5.72777 -3.84032
upperneck -8.72641 -5.56197 14.366
head 0.0353048 -2.06478 4.76488
rclavicle 4.41302e-014 -5.32743e-014
rhumerus -30.2587 37.4173 -90.2261
rradius 48.3364
rwrist -17.7113
rhand -31.7075 12.0206
rfingers 7.12502
rthumb -4.96627 -17.9012
lclavicle 4.41302e-014 -5.32743e-014
lhumerus 53.0634 -24.005 76.4097
lradius 115.164
lwrist -29.1335
lhand -59.4695 -14.6994
lfingers 7.12502
lthumb -31.6466 12.5767
rfemur -98.0269 -6.27951 39.3159
rtibia 135.364
rfoot 3.45126 -8.98692
rtoes -5.81814
lfemur 22.6242 -3.09615 -13.0467
ltibia 39.9754
lfoot -13.8227 -14.8567
ltoes 5.47322
108
root -2.43052 16.4606 6.45538 135.768 -25.8245 -167.136
lowerback 52.9876 -7.89973 0.962344
upperback 14.7464 -17.5406 4.0376
thorax -2.47055 -12.4964 10.659
lowerneck -12.5146 -5.74065 -3.84446
upperneck -8.72011 -5.57131 14.4775
head 0.0423157 -2.06609 4.79929
rclavicle -6.98728e-014 1.70557e-013
rhumerus -30.4908 37.5069 -90.3801
rradius 48.2425
rwrist -17.8609
rhand -31.6882 12.0449
rfingers 7.12502
rthumb -4.94765 -17.8773
lclavicle -6.98728e-014 1.70557e-013
lhumerus 52.7898 -24.1041 76.5638
lradius 114.946
lwrist -29.037
lhand -59.3417 -14.3146
lfingers 7.12502
lthumb -31.5249 12.9855
rfemur -97.6231 -6.70138 39.1328
rtibia 135.453
rfoot 3.22701 -8.62374
rtoes -4.32789
lfemur 22.5508 -3.03117 -12.8935
ltibia 39.8071
lfoot -13.7314 -14.8834
ltoes 5.28714
